<svg id="Layer_1" height="512" viewBox="0 0 128 128" width="512" xmlns="http://www.w3.org/2000/svg" data-name="Layer 1"><path d="m94.5 113.853h-62.749l2.6-18.748a28.4 28.4 0 0 1 28.136-24.505h1.277a28.406 28.406 0 0 1 28.136 24.505z" fill="#ff6412"/><path d="m99.746 60.47a24.606 24.606 0 0 1 -4.29 12.38 24.87 24.87 0 0 1 -16.13 10.47 19.624 19.624 0 0 1 -2.04.28 24.9 24.9 0 0 1 -14.16-2.87 24.9 24.9 0 0 1 -14.16 2.87c-.69-.06-1.37-.16-2.04-.28a24.894 24.894 0 0 1 -16.126-10.47 24.485 24.485 0 0 1 -4.24-11.69 24.769 24.769 0 0 1 7.25-19.96 78.133 78.133 0 0 0 13.07-16.38 19.708 19.708 0 0 1 1.11-1.74c3.74-5.45 9.47-8.93 15.89-8.93a19.013 19.013 0 0 1 14.68 7.32 22.932 22.932 0 0 1 2.5 3.66 73.656 73.656 0 0 0 11.59 16.28 24.724 24.724 0 0 1 7.096 19.06z" fill="#ffb59e"/><path d="m79.326 65.13v18.19a19.624 19.624 0 0 1 -2.04.28 24.84 24.84 0 0 1 -12.41-2.02c-.6-.26-1.18-.54-1.75-.85-.57.31-1.15.59-1.75.85a24.84 24.84 0 0 1 -12.41 2.02c-.69-.06-1.37-.16-2.04-.28v-18.19a16.187 16.187 0 0 1 13.274-15.93c.42-.08.84-.14 1.27-.19l.83-.06c.27-.01.55-.02.83-.02s.56.01.83.02l.83.06c.43.05.85.11 1.27.19a16.187 16.187 0 0 1 13.266 15.93z" fill="#fb8b5c"/><path d="m64.876 60.48v21.1c-.6-.26-1.18-.54-1.75-.85-.57.31-1.15.59-1.75.85v-21.1a1.75 1.75 0 0 1 3.5 0z" fill="#ffb59e"/><path d="m69.938 53.667a6.813 6.813 0 1 1 -13.625 0c0-3.762 3.05-4.739 6.813-4.739s6.812.977 6.812 4.739z" fill="#08607d"/><circle cx="51.599" cy="40.908" fill="#08607d" r="2.243"/><circle cx="74.652" cy="40.908" fill="#08607d" r="2.243"/><path d="m78.253 113.853h-30.253l1.254-9.039a13.7 13.7 0 0 1 13.564-11.814h.616a13.7 13.7 0 0 1 13.566 11.814z" fill="#fb8b5c"/><path d="m47.2 22.23s-5.964-12.75-17.8-5.417-1.333 27-11.333 38.667.2 24.708 11.472 17.582c4.244-2.682 5.628-12.179 5.993-20.516a24.605 24.605 0 0 1 8.688-17.4c5.661-4.94 2.98-12.916 2.98-12.916z" fill="#fb8b5c"/><path d="m79.053 22.23s5.962-12.75 17.8-5.417 1.334 27 11.334 38.667-.2 24.708-11.472 17.582c-4.244-2.682-5.629-12.179-5.993-20.516a24.6 24.6 0 0 0 -8.689-17.4c-5.663-4.94-2.98-12.916-2.98-12.916z" fill="#fb8b5c"/><g fill="#04303e"><path d="m95.339 107.156a1.75 1.75 0 0 0 -3.467.481l.9 6.457a1.75 1.75 0 0 0 1.728 1.506 1.8 1.8 0 0 0 .242-.017 1.751 1.751 0 0 0 1.493-1.974z"/><path d="m93.083 103.631a1.749 1.749 0 0 0 1.493-1.973l-.115-.832a1.75 1.75 0 0 0 -3.467.48l.115.832a1.75 1.75 0 0 0 1.732 1.51 1.66 1.66 0 0 0 .242-.017z"/><path d="m47.607 40.909a3.993 3.993 0 1 0 3.993-3.993 4 4 0 0 0 -3.993 3.993zm4.486 0a.493.493 0 1 1 -.493-.493.494.494 0 0 1 .493.493z"/><path d="m70.66 40.909a3.993 3.993 0 1 0 3.992-3.993 4 4 0 0 0 -3.992 3.993zm4.486 0a.493.493 0 1 1 -.494-.493.494.494 0 0 1 .494.493z"/><path d="m78.733 104.574a15.508 15.508 0 0 0 -15.3-13.324h-.617a15.508 15.508 0 0 0 -15.3 13.324l-1.254 9.039a1.75 1.75 0 1 0 3.466.481l1.254-9.04a12 12 0 0 1 11.832-10.3h.617a12 12 0 0 1 11.832 10.3l1.254 9.04a1.75 1.75 0 0 0 1.731 1.51 1.8 1.8 0 0 0 .242-.017 1.75 1.75 0 0 0 1.493-1.974z"/><path d="m22.6 33.668h.055a1.749 1.749 0 0 0 1.745-1.694c.009-.272.02-.542.032-.812a1.75 1.75 0 0 0 -1.668-1.828 1.726 1.726 0 0 0 -1.829 1.666q-.021.429-.034.863a1.75 1.75 0 0 0 1.699 1.805z"/><path d="m36.827 52.622a22.772 22.772 0 0 1 8.092-16.158c4.281-3.736 4.47-8.835 4.081-11.964a1.733 1.733 0 0 0 .434-.425c3.38-4.926 8.369-7.891 13.7-8.143a16.619 16.619 0 0 1 9.319 3.492 1.75 1.75 0 0 0 2.127-2.779 20.087 20.087 0 0 0 -11.38-4.218c-.049 0-.1 0-.148 0a20.906 20.906 0 0 0 -15.28 8.033c-1.115-1.888-3.914-5.829-8.51-7.2-3.545-1.056-7.325-.362-11.236 2.062a13.938 13.938 0 0 0 -6.254 9.03 1.75 1.75 0 1 0 3.4.837 10.474 10.474 0 0 1 4.7-6.893c3.016-1.869 5.836-2.437 8.373-1.688 4.153 1.224 6.528 5.6 6.872 6.272.253.848 1.92 7.087-2.5 10.944a26.232 26.232 0 0 0 -9.286 18.646c-.619 14.173-3.512 18.058-5.18 19.113-4.046 2.557-8.324 2.278-10.9-.7-2.632-3.044-3.129-8.634 1.694-14.261 4.388-5.119 5.155-11.631 5.329-17.9a1.75 1.75 0 1 0 -3.5-.1c-.181 6.507-1.014 11.671-4.489 15.724-4.306 5.02-6.671 13.054-1.685 18.823a10.707 10.707 0 0 0 8.127 3.656 13.62 13.62 0 0 0 7.292-2.283c4.049-2.559 6.281-9.728 6.808-21.92z"/><path d="m109.965 54.341c-4.368-5.1-4.458-12.1-4.546-18.881-.1-7.768-.2-15.8-7.194-20.134-3.912-2.424-7.694-3.118-11.236-2.062-6 1.784-8.945 7.963-9.067 8.225a1.627 1.627 0 0 0 -.074.183c-.124.371-2.981 9.149 3.483 14.792a22.772 22.772 0 0 1 8.092 16.158c.414 9.488 1.86 15.921 4.386 19.519a23.225 23.225 0 0 1 -14.792 9.459c-.7.125-1.313.21-1.891.26a23.229 23.229 0 0 1 -12.25-2.214v-17.597a8.576 8.576 0 0 0 6.812-8.382c0-.061 0-.123-.006-.185a14.435 14.435 0 0 1 5.894 11.648v9.96a1.75 1.75 0 0 0 3.5 0v-9.96a17.913 17.913 0 0 0 -14.707-17.651c-.042-.008-.083-.006-.125-.011a16.907 16.907 0 0 0 -6.236 0c-.042 0-.082 0-.124.011a17.913 17.913 0 0 0 -14.707 17.651v15.991a23.075 23.075 0 0 1 -8.039-4.043 1.75 1.75 0 1 0 -2.155 2.757 26.306 26.306 0 0 0 2.785 1.9 30.158 30.158 0 0 0 -5.149 13.129l-2.6 18.749a1.75 1.75 0 0 0 1.493 1.974 1.8 1.8 0 0 0 .242.017 1.75 1.75 0 0 0 1.731-1.51l2.6-18.749a26.638 26.638 0 0 1 4.852-12.007 26.082 26.082 0 0 0 5.63 1.694h.012l.036.007c.8.144 1.52.243 2.19.3a26.725 26.725 0 0 0 14.32-2.639 26.609 26.609 0 0 0 11.829 2.757q1.237 0 2.483-.114c.677-.058 1.4-.157 2.194-.3a26.015 26.015 0 0 0 5.682-1.707 26.622 26.622 0 0 1 4.854 12.009 1.75 1.75 0 0 0 1.731 1.51 1.655 1.655 0 0 0 .243-.017 1.749 1.749 0 0 0 1.493-1.973 30.141 30.141 0 0 0 -5.156-13.138 26.96 26.96 0 0 0 7.865-7.119 13.569 13.569 0 0 0 7.178 2.217 10.71 10.71 0 0 0 8.127-3.656c4.988-5.769 2.623-13.803-1.683-18.828zm-44.265-3.432c.016 0 .03.01.046.013.12.022.234.056.353.08 2.088.585 2.091 1.833 2.091 2.665a5.063 5.063 0 1 1 -10.125 0c0-.832 0-2.079 2.09-2.664.119-.025.235-.059.356-.081.017 0 .032-.011.049-.014a14.443 14.443 0 0 1 5.14 0zm-16.583 30.948c-.14-.012-.294-.034-.44-.05v-16.677a14.435 14.435 0 0 1 5.893-11.647c0 .061-.007.124-.007.184a8.577 8.577 0 0 0 6.813 8.382v17.593a23.247 23.247 0 0 1 -12.259 2.215zm59.883-10.977c-2.578 2.984-6.856 3.261-10.9.7-1.668-1.055-4.561-4.94-5.18-19.113a26.232 26.232 0 0 0 -9.285-18.642c-4.43-3.868-2.773-10.037-2.5-10.942.348-.683 2.723-5.051 6.873-6.274 2.536-.749 5.356-.181 8.373 1.688 5.36 3.323 5.443 9.756 5.539 17.205.091 7.057.193 15.054 5.387 21.114 4.823 5.63 4.326 11.22 1.693 14.264z"/></g></svg>